<svg width="383" height="413" viewBox="0 0 383 413" fill="none" xmlns="http://www.w3.org/2000/svg">
<path d="M64.9172 111.357L79.0438 127.823C80.7369 129.796 83.8333 129.655 85.3398 127.536L119.569 79.3813M64.9172 212.762L79.0438 229.228C80.7369 231.201 83.8333 231.06 85.3398 228.941L119.569 180.786M64.9172 314.168L79.0438 330.633C80.7369 332.606 83.8333 332.465 85.3398 330.346L119.569 282.191M184.259 105.544H296.908M184.259 206.949H296.908M184.259 308.354H296.908M20.0652 16.9486L362.065 16.9486C364.274 16.9486 366.065 18.7395 366.065 20.9486V392.949C366.065 395.158 364.274 396.949 362.065 396.949H20.0652C17.8561 396.949 16.0652 395.158 16.0652 392.949L16.0652 20.9486C16.0652 18.7395 17.856 16.9486 20.0652 16.9486Z" stroke="black" stroke-width="32" stroke-linecap="round"/>
</svg>
