<svg width="383" height="413" viewBox="0 0 383 413" fill="none" xmlns="http://www.w3.org/2000/svg">
<path d="M45.8043 325.499V394.499C45.8043 395.67 46.7945 396.619 48.016 396.619H364.485C365.716 396.619 366.71 395.656 366.696 394.476L362.379 18.7144C362.365 17.5532 361.379 16.6186 360.167 16.6186L48.016 16.6186C46.7945 16.6186 45.8043 17.5673 45.8043 18.7377V77.2791M45.8043 325.499V206.619M45.8043 325.499H16.6962M45.8043 325.499H78.5509M45.8043 206.619V77.2791M45.8043 206.619H78.5509M45.8043 206.619H16.6962M45.8043 77.2791H16.6962M45.8043 77.2791H78.5509M134.584 103.775H280.852M168.058 149.793H247.378" stroke="black" stroke-width="32" stroke-linecap="round"/>
</svg>
