<?xml version="1.0" standalone="no"?>
<!DOCTYPE svg PUBLIC "-//W3C//DTD SVG 20010904//EN"
 "http://www.w3.org/TR/2001/REC-SVG-20010904/DTD/svg10.dtd">
<svg version="1.0" xmlns="http://www.w3.org/2000/svg"
 width="500.000000pt" height="500.000000pt" viewBox="0 0 500.000000 500.000000"
 preserveAspectRatio="xMidYMid meet">

<g transform="translate(0.000000,500.000000) scale(0.100000,-0.100000)"
fill="#000000" stroke="none">
<path d="M2205 4944 c-286 -39 -545 -118 -798 -245 -250 -126 -411 -243 -617
-449 -209 -209 -333 -379 -476 -655 -157 -304 -230 -580 -254 -965 -15 -244 9
-552 56 -720 127 -457 330 -821 638 -1147 l49 -53 28 18 c15 9 82 55 150 100
314 212 848 420 1452 566 78 19 157 37 175 41 17 4 32 11 32 16 0 5 -33 33
-73 63 -444 328 -1221 560 -1784 532 -73 -4 -187 -13 -254 -22 -67 -8 -124
-12 -126 -10 -11 11 -33 137 -39 222 l-7 91 33 7 c173 34 650 32 885 -3 445
-69 932 -237 1258 -435 412 -250 607 -521 607 -843 0 -349 -295 -654 -669
-692 -112 -12 -306 -1 -443 25 -122 23 -228 55 -228 70 0 26 326 137 584 199
287 69 364 115 436 255 17 34 24 68 28 139 l5 94 -55 -6 c-57 -7 -381 -75
-478 -101 -205 -54 -259 -70 -375 -107 -189 -60 -360 -130 -524 -215 -153 -79
-341 -198 -341 -216 0 -15 17 -27 152 -108 275 -167 618 -286 943 -330 468
-63 1013 35 1435 257 690 364 1156 1005 1291 1778 41 239 36 609 -12 860 -92
484 -351 956 -723 1319 -202 197 -510 403 -746 499 -231 95 -472 157 -685 177
-148 14 -408 11 -530 -6z m534 -284 c243 -26 611 -153 816 -281 190 -119 392
-293 516 -445 l59 -72 0 -94 c0 -235 -112 -472 -325 -683 -392 -391 -945 -544
-1610 -445 -138 21 -207 35 -515 105 -477 109 -780 139 -1098 110 -101 -9
-186 -14 -190 -11 -9 9 14 135 44 240 36 122 106 303 150 384 331 609 769 967
1388 1136 67 19 155 39 196 45 41 6 86 13 100 15 55 8 381 5 469 -4z m1753
-1391 c40 -96 78 -235 78 -285 0 -60 -64 -203 -147 -328 -95 -144 -281 -328
-433 -429 -185 -122 -412 -220 -610 -263 -115 -24 -127 -21 -217 49 -44 35
-123 92 -176 127 -54 35 -97 67 -97 71 0 5 17 11 38 14 134 22 304 62 407 96
154 51 395 170 510 253 184 133 363 324 470 501 56 92 125 233 125 253 0 32
27 1 52 -59z m118 -1111 c-28 -147 -74 -298 -113 -373 -64 -122 -294 -315
-471 -395 -122 -55 -254 -97 -363 -115 -40 -6 -42 -5 -49 22 -18 80 -29 116
-65 202 -41 97 -40 110 3 111 10 0 71 17 136 39 128 42 285 112 400 180 171
99 373 279 482 425 40 55 44 58 53 39 6 -15 2 -56 -13 -135z m-3355 -512 c193
-30 418 -87 445 -112 9 -9 11 -17 5 -23 -6 -4 -75 -32 -155 -60 -229 -81 -417
-158 -585 -241 -138 -68 -157 -74 -169 -61 -81 92 -270 425 -264 465 3 22 21
27 163 46 99 13 441 4 560 -14z m2540 -774 c-78 -65 -225 -155 -225 -137 0 8
32 109 37 114 4 6 132 29 168 30 16 0 25 -3 20 -7z"/>
<path d="M2969 4289 c-257 -60 -420 -264 -421 -524 -1 -149 31 -240 121 -351
156 -192 439 -247 671 -132 85 42 187 143 229 226 107 212 70 451 -97 624 -74
77 -125 109 -229 144 -75 25 -198 31 -274 13z"/>
</g>
</svg>
